<svg xmlns="http://www.w3.org/2000/svg" width="226" height="231">
<defs>
</defs>

<path d="M209.64,159.623 C209.64,159.623 200.01,171.036 200.01,171.036 C188.486,181.162 176.216,189.216 163.381,197.434 C147.786,207.42 132.976,217.476 115.845,224.999 C115.845,224.999 99.2205,215.801 99.2205,215.801 C89.5534,210.452 80.4241,205.175 71.0468,198.833 C56.532,189.017 41.9464,180.52 28.3464,169.708 C28.3464,169.708 18.3396,159.658 18.3396,159.658 C12.7673,139.779 10.7088,119.806 8.54173,99.3313 C8.54173,99.3313 3.96036,56.0474 3.96036,56.0474 C3.96036,56.0474 16.1617,50.0873 16.1617,50.0873 C16.1617,50.0873 96.9506,15.1833 96.9506,15.1833 C96.9506,15.1833 116.095,6.9957 116.095,6.9957 C115.029,5.69686 114.704,4.48598 114.971,3.44708 C115.345,1.99498 117.286,1.22341 119.063,2.01131 C119.063,2.01131 126.629,5.36728 126.629,5.36728 C132.042,7.76793 136.948,9.32543 142.151,13.573 C142.635,11.827 144.804,12.3664 143.68,14.1786 C143.68,14.1786 152.7,22.5497 152.7,22.5497 C154.511,24.2295 157.304,24.89 160.669,26.0949 C160.227,22.6492 157.657,19.6074 154.059,17.8703 C155.35,14.5627 158.008,15.9376 160.135,16.5829 C170.364,19.6875 177.194,26.1766 181.894,35.146 C181.894,35.146 205.909,47.0183 205.909,47.0183 C205.909,47.0183 224.038,55.5371 224.038,55.5371 C224.038,55.5371 223.744,86.988 223.744,86.988 C223.719,89.6186 223.308,92.3871 222.831,95.0035 C222.831,95.0035 215.006,137.985 215.006,137.985 C215.006,137.985 209.64,159.623 209.64,159.623 Z M196.41,88.8873 C196.41,88.8873 195.663,77.5998 195.663,77.5998 C192.973,80.4382 192.834,85.6906 189.43,85.9864 C187.932,86.1167 186.343,83.9416 186.877,82.0355 C190.187,70.2248 187.267,59.7555 183.425,49.1055 C180.593,41.2563 177.349,30.6459 171.168,26.6305 C169.105,25.2902 167.442,22.1956 163.583,23.0761 C163.583,23.0761 168.138,32.8998 168.138,32.8998 C169.521,35.8834 169.403,38.9496 167.617,42.0802 C166.363,44.2795 162.01,43.8625 160.767,41.196 C157.354,33.8721 153.372,27.227 147.105,21.8716 C140.098,15.8845 133.273,10.83 124.184,8.59262 C122.716,8.23105 121.352,5.54195 118.783,6.26331 C123.741,12.865 131.369,23.2256 132.482,29.3481 C134.632,41.1675 130.126,52.5955 121.961,61.0039 C116.329,66.8037 113.707,73.7394 113.652,81.664 C111.558,84.2492 108.423,87.3825 108.024,90.822 C105.777,110.186 117.829,120.973 117.664,136.995 C117.53,150.058 106.137,161.86 115.806,173.166 C127.343,167.566 139.367,166.093 151.554,165.599 C167.829,164.939 177.677,151.945 183.212,137.247 C183.212,137.247 190.452,118.02 190.452,118.02 C194.004,108.585 197.122,99.6507 196.41,88.8873 Z M212.379,61.7992 C212.379,61.7992 210.513,61.2133 210.513,61.2133 C210.035,60.9578 209.076,62.2174 209.14,62.8789 C209.14,62.8789 199.998,59.077 199.998,59.077 C199.998,59.077 189.473,54.9545 189.473,54.9545 C191.186,61.2357 191.669,66.5501 192.235,73.2707 C193.057,71.9401 193.574,70.3446 194.521,70.0747 C197.271,69.2917 197.304,71.1371 197.799,72.9373 C202.439,89.8033 199.45,105.398 193.297,120.941 C193.297,120.941 184.429,143.347 184.429,143.347 C178.214,159.047 165.99,169.577 148.578,169.531 C136.935,169.5 126.803,172.185 115.745,176.677 C108.677,179.548 96.449,166.488 72.4484,165.494 C61.9599,165.06 54.2075,159.723 47.8441,152.138 C41.6188,144.718 37.9195,137.601 35.5572,128.28 C30.7486,109.307 26.9188,91.3554 33.4544,72.3077 C33.6726,71.7378 35.5746,71.7188 36.3257,72.1913 C38.1885,73.3633 41.7256,85.439 49.5955,82.6769 C49.5955,82.6769 66.895,76.6054 66.895,76.6054 C82.4341,71.1517 95.489,72.3609 110.739,78.0132 C110.908,58.5033 133.456,53.9138 128.586,29.7249 C128.586,29.7249 120.034,25.8025 120.034,25.8025 C117.423,24.6047 115.107,23.1161 112.427,24.4037 C112.427,24.4037 91.5328,34.443 91.5328,34.443 C91.5328,34.443 24.7015,62.5997 24.7015,62.5997 C24.7015,62.5997 17.7107,66.697 17.7107,66.697 C18.8594,90.5457 19.7169,113.197 23.6386,136.082 C25.0031,145.454 27.6433,153.962 33.7146,161.256 C33.7146,161.256 91.7646,199.143 91.7646,199.143 C91.7646,199.143 115.864,212.523 115.864,212.523 C141.689,199.569 166.62,181.842 189.889,165.134 C196.108,160.668 198.563,155.341 200.651,148.363 C205.101,133.499 208.952,118.919 210.388,103.396 C210.526,101.908 210.869,99.7704 211.163,98.3064 C211.163,98.3064 213.134,100.981 213.134,100.981 C211.042,117.22 207.567,132.76 203.297,149.02 C201.698,155.109 199.122,160.6 193.58,165.055 C170.619,183.512 145.264,199.367 119.263,213.999 C116.901,215.328 114.075,214.598 112.384,213.656 C112.384,213.656 92.9828,202.843 92.9828,202.843 C92.9828,202.843 37.1868,166.926 37.1868,166.926 C24.3643,158.672 21.1165,141.176 19.576,125.332 C19.576,125.332 16.9187,98.0011 16.9187,98.0011 C16.9187,98.0011 14.9839,70.0378 14.9839,70.0378 C14.6843,65.7066 16.0728,63.6377 20.1547,61.9076 C20.1547,61.9076 90.865,31.9373 90.865,31.9373 C90.865,31.9373 114.065,20.6455 114.065,20.6455 C114.065,20.6455 126.367,25.6292 126.367,25.6292 C125.363,20.0005 121.294,17.1381 119.266,13.0563 C117.962,10.4333 116.357,9.55663 113.688,10.692 C113.688,10.692 93.4897,19.2852 93.4897,19.2852 C94.4376,20.7738 92.3914,21.1168 92.0575,19.583 C92.0575,19.583 41.8003,41.7358 41.8003,41.7358 C41.8003,41.7358 31.7933,45.745 31.7933,45.745 C31.7933,45.745 6.48258,57.1815 6.48258,57.1815 C6.48258,57.1815 13.4112,121.703 13.4112,121.703 C14.7405,134.082 16.3567,146.643 21.0797,157.898 C23.8602,164.524 30.6361,168.999 36.2297,172.71 C36.2297,172.71 66.9326,193.077 66.9326,193.077 C66.9326,193.077 78.2199,200.83 78.2199,200.83 C78.2199,200.83 97.0702,211.83 97.0702,211.83 C101.444,214.383 105.306,217.228 110.364,218.751 C111.692,221.149 115.205,222.894 118.176,221.321 C118.176,221.321 128.229,216.263 128.229,216.263 C128.229,216.263 151.256,202.305 151.256,202.305 C151.256,202.305 170.206,190.223 170.206,190.223 C170.206,190.223 185.435,179.405 185.435,179.405 C194.635,172.869 202.18,165.924 208.217,155.752 C208.217,155.752 217.035,113.973 217.035,113.973 C221.09,94.7692 223.117,75.9318 221.636,56.9398 C221.636,56.9398 183.781,38.9298 183.781,38.9298 C185.986,42.8766 186.661,47.4844 187.696,51.2668 C187.696,51.2668 212.379,61.7992 212.379,61.7992 Z M164.047,39.6233 C165.974,36.8229 164.948,32.9836 163.236,30.7159 C162.038,29.1296 159.468,27.8638 157.251,27.4914 C157.251,27.4914 164.047,39.6233 164.047,39.6233 Z M87.5413,164.057 C87.5413,164.057 111.794,173.189 111.794,173.189 C108.415,165.001 109.624,156.358 113.025,148.091 C118.395,135.04 112.425,122.876 107.919,111.067 C104.588,102.338 103.773,88.7262 110.44,81.5604 C98.5886,77.021 84.6899,73.9386 72.2578,78.3219 C72.2578,78.3219 51.1315,85.7707 51.1315,85.7707 C44.2969,88.1804 38.8671,84.5501 35.4744,77.364 C31.7101,94.8685 33.9816,112.414 39.5811,129.288 C41.205,134.181 41.8761,138.648 45.216,142.887 C52.2472,151.81 57.1702,160.11 70.2628,161.811 C70.2628,161.811 87.5413,164.057 87.5413,164.057 Z M116.402,138.983 C117.383,136.583 117.283,135.404 116.643,133.79 C115.553,135.458 115.732,137.526 116.402,138.983 Z " fill="rgb(16,3,11)"/>
<path d="M196.41,88.8873 C197.122,99.6507 194.004,108.585 190.452,118.02 C190.452,118.02 183.212,137.247 183.212,137.247 C177.677,151.945 167.829,164.939 151.554,165.599 C139.367,166.093 127.343,167.566 115.806,173.166 C106.137,161.86 117.53,150.058 117.664,136.995 C117.829,120.973 105.777,110.186 108.024,90.822 C108.423,87.3825 111.558,84.2492 113.652,81.664 C113.707,73.7394 116.329,66.8037 121.961,61.0039 C130.126,52.5955 134.632,41.1675 132.482,29.3481 C131.369,23.2256 123.741,12.865 118.783,6.26331 C121.352,5.54195 122.716,8.23105 124.184,8.59262 C133.273,10.83 140.098,15.8845 147.105,21.8716 C153.372,27.227 157.354,33.8721 160.767,41.196 C162.01,43.8625 166.363,44.2795 167.617,42.0802 C169.403,38.9496 169.521,35.8834 168.138,32.8998 C168.138,32.8998 163.583,23.0761 163.583,23.0761 C167.442,22.1956 169.105,25.2902 171.168,26.6305 C177.349,30.6459 180.593,41.2563 183.425,49.1055 C187.267,59.7555 190.187,70.2248 186.877,82.0355 C186.343,83.9416 187.932,86.1167 189.43,85.9864 C192.834,85.6906 192.973,80.4382 195.663,77.5998 C195.663,77.5998 196.41,88.8873 196.41,88.8873 Z M150.344,136.416 C157.111,133.759 163.035,130.383 167.717,124.599 C167.717,124.599 176.318,113.972 176.318,113.972 C174.446,109.878 169.926,112.145 167.281,111.776 C154.802,110.037 143.158,110.999 133.158,118.221 C128.471,121.606 123.332,126.334 124.691,132.685 C125.351,135.769 137.99,141.268 150.344,136.416 Z " fill="rgb(190,49,49)"/>
<path d="M87.5413,164.057 C87.5413,164.057 70.2628,161.811 70.2628,161.811 C57.1702,160.11 52.2472,151.81 45.216,142.887 C41.8761,138.648 41.205,134.181 39.5811,129.288 C33.9816,112.414 31.7101,94.8685 35.4744,77.364 C38.8671,84.5501 44.2969,88.1804 51.1315,85.7707 C51.1315,85.7707 72.2578,78.3219 72.2578,78.3219 C84.6899,73.9386 98.5886,77.021 110.44,81.5604 C103.773,88.7262 104.588,102.338 107.919,111.067 C112.425,122.876 118.395,135.04 113.025,148.091 C109.624,156.358 108.415,165.001 111.794,173.189 C111.794,173.189 87.5413,164.057 87.5413,164.057 Z M96.5649,132.255 C98.9239,123.391 89.2642,114.722 81.8537,112.325 C70.7182,108.722 60.1652,107.942 48.3536,108.395 C51.544,118.252 56.8233,125.136 65.099,130.215 C73.6575,135.469 88.4999,140.184 96.5649,132.255 Z " fill="rgb(238,185,77)"/>
<path d="M213.134,100.981 C213.134,100.981 214.29,92.0075 214.29,92.0075 C215.544,82.2762 216.952,72.9895 215.697,63.2403 C215.697,63.2403 212.379,61.7992 212.379,61.7992 C212.379,61.7992 187.696,51.2668 187.696,51.2668 C186.661,47.4844 185.986,42.8766 183.781,38.9298 C183.781,38.9298 221.636,56.9398 221.636,56.9398 C223.117,75.9318 221.09,94.7692 217.035,113.973 C217.035,113.973 208.217,155.752 208.217,155.752 C202.18,165.924 194.635,172.869 185.435,179.405 C185.435,179.405 170.206,190.223 170.206,190.223 C170.206,190.223 151.256,202.305 151.256,202.305 C151.256,202.305 128.229,216.263 128.229,216.263 C128.229,216.263 118.176,221.321 118.176,221.321 C115.205,222.894 111.692,221.149 110.364,218.751 C105.306,217.228 101.444,214.383 97.0702,211.83 C97.0702,211.83 78.2199,200.83 78.2199,200.83 C78.2199,200.83 66.9326,193.077 66.9326,193.077 C66.9326,193.077 36.2297,172.71 36.2297,172.71 C30.6361,168.999 23.8602,164.524 21.0797,157.898 C16.3567,146.643 14.7405,134.082 13.4112,121.703 C13.4112,121.703 6.48258,57.1815 6.48258,57.1815 C6.48258,57.1815 31.7933,45.745 31.7933,45.745 C31.7933,45.745 41.8003,41.7358 41.8003,41.7358 C41.8003,41.7358 92.0575,19.583 92.0575,19.583 C92.3914,21.1168 94.4376,20.7738 93.4897,19.2852 C93.4897,19.2852 113.688,10.692 113.688,10.692 C116.357,9.55663 117.962,10.4333 119.266,13.0563 C121.294,17.1381 125.363,20.0005 126.367,25.6292 C126.367,25.6292 114.065,20.6455 114.065,20.6455 C114.065,20.6455 90.865,31.9373 90.865,31.9373 C90.865,31.9373 20.1547,61.9076 20.1547,61.9076 C16.0728,63.6377 14.6843,65.7066 14.9839,70.0378 C14.9839,70.0378 16.9187,98.0011 16.9187,98.0011 C16.9187,98.0011 19.576,125.332 19.576,125.332 C21.1165,141.176 24.3643,158.672 37.1868,166.926 C37.1868,166.926 92.9828,202.843 92.9828,202.843 C92.9828,202.843 112.384,213.656 112.384,213.656 C114.075,214.598 116.901,215.328 119.263,213.999 C145.264,199.367 170.619,183.512 193.58,165.055 C199.122,160.6 201.698,155.109 203.297,149.02 C207.567,132.76 211.042,117.22 213.134,100.981 Z M78.5947,29.7888 C78.9453,28.1669 75.9602,26.8725 75.0017,28.5298 C75.6151,28.9584 77.6309,30.048 78.5947,29.7888 Z " fill="rgb(54,92,172)"/>
<path d="M209.14,62.8789 C209.14,62.8789 213.421,64.6864 213.421,64.6864 C214.341,72.7989 213.259,80.7149 212.133,89.0108 C211.689,92.2808 211.776,95.2618 211.163,98.3064 C210.869,99.7704 210.526,101.908 210.388,103.396 C208.952,118.919 205.101,133.499 200.651,148.363 C198.563,155.341 196.108,160.668 189.889,165.134 C166.62,181.842 141.689,199.569 115.864,212.523 C115.864,212.523 91.7646,199.143 91.7646,199.143 C91.7646,199.143 33.7146,161.256 33.7146,161.256 C27.6433,153.962 25.0031,145.454 23.6386,136.082 C19.7169,113.197 18.8594,90.5457 17.7107,66.697 C17.7107,66.697 24.7015,62.5997 24.7015,62.5997 C24.7015,62.5997 91.5328,34.443 91.5328,34.443 C91.5328,34.443 112.427,24.4037 112.427,24.4037 C115.107,23.1161 117.423,24.6047 120.034,25.8025 C120.034,25.8025 128.586,29.7249 128.586,29.7249 C133.456,53.9138 110.908,58.5033 110.739,78.0132 C95.489,72.3609 82.4341,71.1517 66.895,76.6054 C66.895,76.6054 49.5955,82.6769 49.5955,82.6769 C41.7256,85.439 38.1885,73.3633 36.3257,72.1913 C35.5746,71.7188 33.6726,71.7378 33.4544,72.3077 C26.9188,91.3554 30.7486,109.307 35.5572,128.28 C37.9195,137.601 41.6188,144.718 47.8441,152.138 C54.2075,159.723 61.9599,165.06 72.4484,165.494 C96.449,166.488 108.677,179.548 115.745,176.677 C126.803,172.185 136.935,169.5 148.578,169.531 C165.99,169.577 178.214,159.047 184.429,143.347 C184.429,143.347 193.297,120.941 193.297,120.941 C199.45,105.398 202.439,89.8033 197.799,72.9373 C197.304,71.1371 197.271,69.2917 194.521,70.0747 C193.574,70.3446 193.057,71.9401 192.235,73.2707 C191.669,66.5501 191.186,61.2357 189.473,54.9545 C189.473,54.9545 199.998,59.077 199.998,59.077 C199.998,59.077 209.14,62.8789 209.14,62.8789 Z M209.846,66.1998 C209.846,66.1998 199.22,62.484 199.22,62.484 C198.559,62.2529 197.826,61.1849 196.469,61.6152 C195.63,61.8812 194.852,61.9357 194.846,63.4705 C194.842,64.4567 195.546,65.1312 196.797,65.4279 C196.764,67.7537 199.595,69.603 200.334,71.2717 C202.642,76.4859 202.94,81.876 203.512,87.4661 C204.008,92.3174 202.549,97.6885 201.599,102.655 C199.222,115.08 196.686,127.001 190.051,138.13 C190.469,143.564 187.951,148.553 184.272,152.306 C183.232,155.773 180.482,157.753 178.378,160.073 C174.352,164.513 170.063,168.995 163.853,169.897 C157.363,172.996 150.671,173.657 144.082,172.464 C144.082,172.464 128.509,176.778 128.509,176.778 C107.739,188.778 99.2309,171.575 76.0174,169.173 C70.344,168.586 64.6395,169.166 59.5765,166.323 C55.2632,163.9 51.4802,160.439 47.6158,156.852 C45.1895,156.009 42.997,153.939 42.2103,151.108 C36.7131,146.787 33.0546,134.777 31.5249,127.169 C31.5249,127.169 29.5609,117.401 29.5609,117.401 C28.2231,110.747 28.3763,104.623 27.6667,98.0515 C25.7251,80.0721 29.8973,62.8481 37.5296,68.8331 C38.8903,69.9001 39.3155,70.8409 40.4188,72.5951 C40.4188,72.5951 44.4412,78.9908 44.4412,78.9908 C55.5988,79.746 64.0797,73.9679 71.7179,71.6789 C83.771,68.0669 96.0578,70.157 107.813,74.1159 C108.98,71.574 108.539,68.1831 110.486,66.4667 C112.505,64.6871 113.375,61.9835 115.176,60.0493 C122.502,52.1845 126.921,42.2235 125.93,31.1641 C125.93,31.1641 119.066,27.7952 119.066,27.7952 C116.216,26.3967 114.482,25.5323 111.7,26.8619 C111.7,26.8619 80.0446,41.9878 80.0446,41.9878 C80.0446,41.9878 68.1952,48.2394 68.1952,48.2394 C60.9862,52.0427 50.2921,52.8842 44.5399,57.3816 C41.5522,59.7175 39.7991,61.1255 35.9918,62.2404 C30.5797,63.8253 25.4921,66.7453 19.7932,67.3621 C19.7932,67.3621 21.9999,88.9902 21.9999,88.9902 C22.4275,93.1812 22.2026,97.0116 22.6009,101.245 C22.6009,101.245 23.994,116.055 23.994,116.055 C24.3539,119.881 23.2511,123.25 25.0613,127.008 C26.6629,130.334 26.5093,135.101 27.0672,139.084 C27.7616,144.041 30.183,148.183 32.3796,153.057 C36.1859,161.504 52.3343,171.442 63.1873,176.433 C66.5184,180.243 71.2479,182.466 76.0821,184.621 C76.0821,184.621 94.2918,196.679 94.2918,196.679 C96.5842,198.197 99.3908,198.67 101.405,201.018 C102.667,202.489 105.724,204.023 108.029,204.871 C108.029,204.871 116.833,208.109 116.833,208.109 C122.679,206.859 126.363,202.829 131.087,200.237 C137.864,196.518 144.06,192.934 149.936,187.805 C149.936,187.805 159.997,182.073 159.997,182.073 C164.323,179.608 167.97,175.786 172.53,173.501 C177.538,170.991 182.861,169.125 184.911,162.829 C189.325,162.451 191.073,158.774 194.35,156.036 C194.35,156.036 197.185,146.057 197.185,146.057 C198.244,142.331 199.656,139.048 200.492,135.377 C200.492,135.377 206.509,108.952 206.509,108.952 C206.509,108.952 208.619,92.0298 208.619,92.0298 C209.717,83.2255 210.19,74.8982 209.846,66.1998 Z " fill="rgb(84,130,231)"/>
<path d="M212.379,61.7992 C212.379,61.7992 215.697,63.2403 215.697,63.2403 C216.952,72.9895 215.544,82.2762 214.29,92.0075 C214.29,92.0075 213.134,100.981 213.134,100.981 C213.134,100.981 211.163,98.3064 211.163,98.3064 C211.776,95.2618 211.689,92.2808 212.133,89.0108 C213.259,80.7149 214.341,72.7989 213.421,64.6864 C213.421,64.6864 209.14,62.8789 209.14,62.8789 C209.076,62.2174 210.035,60.9578 210.513,61.2133 C210.513,61.2133 212.379,61.7992 212.379,61.7992 Z " fill="rgb(0,10,56)"/>
<path d="M164.047,39.6233 C164.047,39.6233 157.251,27.4914 157.251,27.4914 C159.468,27.8638 162.038,29.1296 163.236,30.7159 C164.948,32.9836 165.974,36.8229 164.047,39.6233 Z " fill="rgb(54,99,121)"/>
<path d="M116.402,138.983 C115.732,137.526 115.553,135.458 116.643,133.79 C117.283,135.404 117.383,136.583 116.402,138.983 Z " fill="rgb(48,3,0)"/>
<path d="M150.344,136.416 C137.99,141.268 125.351,135.769 124.691,132.685 C123.332,126.334 128.471,121.606 133.158,118.221 C143.158,110.999 154.802,110.037 167.281,111.776 C169.926,112.145 174.446,109.878 176.318,113.972 C176.318,113.972 167.717,124.599 167.717,124.599 C163.035,130.383 157.111,133.759 150.344,136.416 Z M161.065,126.381 C161.065,126.381 163.123,124.333 163.123,124.333 C165.444,122.023 167.687,119.23 169.373,116.249 C167.113,114.179 165.144,115.336 162.984,114.984 C143.378,111.794 126.228,125.059 128.147,131.343 C128.723,133.23 139.324,136.802 147.617,133.58 C152.374,131.731 157.429,130 161.065,126.381 Z " fill="rgb(31,2,0)"/>
<path d="M96.5649,132.255 C88.4999,140.184 73.6575,135.469 65.099,130.215 C56.8233,125.136 51.544,118.252 48.3536,108.395 C60.1652,107.942 70.7182,108.722 81.8537,112.325 C89.2642,114.722 98.9239,123.391 96.5649,132.255 Z M93.9916,129.675 C89.5183,114.185 71.2222,112.061 56.1037,111.974 C55.6567,114.451 55.7427,116.358 56.8579,117.825 C62.3645,125.068 68.9854,129.594 77.5474,131.739 C83.3925,133.203 89.8274,133.478 93.9916,129.675 Z " fill="rgb(32,3,0)"/>
<path d="M78.5947,29.7888 C77.6309,30.048 75.6151,28.9584 75.0017,28.5298 C75.9602,26.8725 78.9453,28.1669 78.5947,29.7888 Z " fill="rgb(88,118,191)"/>
<path d="M209.846,66.1998 C210.19,74.8982 209.717,83.2255 208.619,92.0298 C208.619,92.0298 206.509,108.952 206.509,108.952 C206.509,108.952 200.492,135.377 200.492,135.377 C199.656,139.048 198.244,142.331 197.185,146.057 C197.185,146.057 194.35,156.036 194.35,156.036 C191.073,158.774 189.325,162.451 184.911,162.829 C182.861,169.125 177.538,170.991 172.53,173.501 C167.97,175.786 164.323,179.608 159.997,182.073 C159.997,182.073 149.936,187.805 149.936,187.805 C144.06,192.934 137.864,196.518 131.087,200.237 C126.363,202.829 122.679,206.859 116.833,208.109 C116.833,208.109 108.029,204.871 108.029,204.871 C105.724,204.023 102.667,202.489 101.405,201.018 C99.3908,198.67 96.5842,198.197 94.2918,196.679 C94.2918,196.679 76.0821,184.621 76.0821,184.621 C71.2479,182.466 66.5184,180.243 63.1873,176.433 C52.3343,171.442 36.1859,161.504 32.3796,153.057 C30.183,148.183 27.7616,144.041 27.0672,139.084 C26.5093,135.101 26.6629,130.334 25.0613,127.008 C23.2511,123.25 24.3539,119.881 23.994,116.055 C23.994,116.055 22.6009,101.245 22.6009,101.245 C22.2026,97.0116 22.4275,93.1812 21.9999,88.9902 C21.9999,88.9902 19.7932,67.3621 19.7932,67.3621 C25.4921,66.7453 30.5797,63.8253 35.9918,62.2404 C39.7991,61.1255 41.5522,59.7175 44.5399,57.3816 C50.2921,52.8842 60.9862,52.0427 68.1952,48.2394 C68.1952,48.2394 80.0446,41.9878 80.0446,41.9878 C80.0446,41.9878 111.7,26.8619 111.7,26.8619 C114.482,25.5323 116.216,26.3967 119.066,27.7952 C119.066,27.7952 125.93,31.1641 125.93,31.1641 C126.921,42.2235 122.502,52.1845 115.176,60.0493 C113.375,61.9835 112.505,64.6871 110.486,66.4667 C108.539,68.1831 108.98,71.574 107.813,74.1159 C96.0578,70.157 83.771,68.0669 71.7179,71.6789 C64.0797,73.9679 55.5988,79.746 44.4412,78.9908 C44.4412,78.9908 40.4188,72.5951 40.4188,72.5951 C39.3155,70.8409 38.8903,69.9001 37.5296,68.8331 C29.8973,62.8481 25.7251,80.0721 27.6667,98.0515 C28.3763,104.623 28.2231,110.747 29.5609,117.401 C29.5609,117.401 31.5249,127.169 31.5249,127.169 C33.0546,134.777 36.7131,146.787 42.2103,151.108 C42.997,153.939 45.1895,156.009 47.6158,156.852 C51.4802,160.439 55.2632,163.9 59.5765,166.323 C64.6395,169.166 70.344,168.586 76.0174,169.173 C99.2309,171.575 107.739,188.778 128.509,176.778 C128.509,176.778 144.082,172.464 144.082,172.464 C150.671,173.657 157.363,172.996 163.853,169.897 C170.063,168.995 174.352,164.513 178.378,160.073 C180.482,157.753 183.232,155.773 184.272,152.306 C187.951,148.553 190.469,143.564 190.051,138.13 C196.686,127.001 199.222,115.08 201.599,102.655 C202.549,97.6885 204.008,92.3174 203.512,87.4661 C202.94,81.876 202.642,76.4859 200.334,71.2717 C199.595,69.603 196.764,67.7537 196.797,65.4279 C195.546,65.1312 194.842,64.4567 194.846,63.4705 C194.852,61.9357 195.63,61.8812 196.469,61.6152 C197.826,61.1849 198.559,62.2529 199.22,62.484 C199.22,62.484 209.846,66.1998 209.846,66.1998 Z " fill="rgb(49,93,183)"/>
<path d="M163.123,124.333 C162.359,123.779 161.419,123.813 161.01,124.502 C160.82,124.822 160.938,125.618 161.065,126.381 C157.429,130 152.374,131.731 147.617,133.58 C139.324,136.802 128.723,133.23 128.147,131.343 C126.228,125.059 143.378,111.794 162.984,114.984 C165.144,115.336 167.113,114.179 169.373,116.249 C167.687,119.23 165.444,122.023 163.123,124.333 Z " fill="rgb(236,185,79)"/>
<path d="M163.123,124.333 C163.123,124.333 161.065,126.381 161.065,126.381 C160.938,125.618 160.82,124.822 161.01,124.502 C161.419,123.813 162.359,123.779 163.123,124.333 Z " fill="rgb(221,216,143)"/>
<path d="M93.9916,129.675 C89.8274,133.478 83.3925,133.203 77.5474,131.739 C68.9854,129.594 62.3645,125.068 56.8579,117.825 C55.7427,116.358 55.6567,114.451 56.1037,111.974 C71.2222,112.061 89.5183,114.185 93.9916,129.675 Z " fill="rgb(187,50,49)"/>
</svg>